<?xml version="1.0" encoding="utf-8"?>
<svg viewBox="-41.58 -47.039 581.323 585.509" width="581.323" height="585.509" xmlns="http://www.w3.org/2000/svg">
  <path style="paint-order: stroke; fill-rule: evenodd; stroke-width: 5px; fill: rgb(255, 131, 0); stroke: rgb(0, 0, 0);" d="M 250 0 C 297.441 0 343.657 13.492 383.395 38.562 C 388.732 41.93 393.94 45.498 399.006 49.259 C 402.984 52.211 406.883 55.289 410.697 58.489 L 378.721 96.596 C 348.855 71.373 310.826 54.447 266.932 50.718 C 261.27 50.237 255.621 49.999 250 49.998 Z" transform="matrix(1, 0, 0, 1, 5.987394, -2.555289)"/>
  <path style="paint-order: stroke; fill-rule: evenodd; stroke-width: 5px; fill: rgb(255, 131, 0); stroke: rgb(0, 0, 0);" d="M 360.812 98.911 C 408.253 98.911 454.469 112.403 494.207 137.473 C 499.544 140.841 504.752 144.409 509.818 148.17 C 513.796 151.122 517.695 154.2 521.509 157.4 L 489.533 195.507 C 459.667 170.284 421.638 153.358 377.744 149.629 C 372.082 149.148 366.433 148.91 360.812 148.909 Z" transform="matrix(0.766044, 0.642788, -0.642788, 0.766044, 203.823715, -251.687592)"/>
  <path style="paint-order: stroke; fill-rule: evenodd; stroke-width: 5px; fill: rgb(255, 131, 0); stroke: rgb(0, 0, 0);" d="M 382.277 246.17 C 429.718 246.17 475.934 259.662 515.672 284.732 C 521.009 288.1 526.217 291.668 531.283 295.429 C 535.261 298.381 539.16 301.459 542.974 304.659 L 510.998 342.766 C 481.132 317.543 443.103 300.617 399.209 296.888 C 393.547 296.407 387.898 296.169 382.277 296.168 Z" transform="matrix(0.173648, 0.984808, -0.984808, 0.173648, 678.273315, -214.818283)"/>
  <path style="paint-order: stroke; fill-rule: evenodd; stroke-width: 5px; fill: rgb(255, 131, 0); stroke: rgb(0, 0, 0);" d="M 304.163 373.037 C 351.604 373.037 397.82 386.529 437.558 411.599 C 442.895 414.967 448.103 418.535 453.169 422.296 C 457.147 425.248 461.046 428.326 464.86 431.526 L 432.884 469.633 C 403.018 444.41 364.989 427.484 321.095 423.755 C 315.433 423.274 309.784 423.036 304.163 423.035 Z" transform="matrix(-0.499999, 0.866026, -0.866026, -0.499999, 947.641296, 296.449799)"/>
  <path style="paint-order: stroke; fill-rule: evenodd; stroke-width: 5px; fill: rgb(255, 131, 0); stroke: rgb(0, 0, 0);" d="M 162.877 419.862 C 210.318 419.862 256.534 433.354 296.272 458.424 C 301.609 461.792 306.817 465.36 311.883 469.121 C 315.861 472.073 319.76 475.151 323.574 478.351 L 291.598 516.458 C 261.732 491.235 223.703 474.309 179.809 470.58 C 174.147 470.099 168.498 469.861 162.877 469.86 Z" transform="matrix(-0.939693, 0.34202, -0.34202, -0.939693, 637.890137, 822.343384)"/>
  <path style="paint-order: stroke; fill-rule: evenodd; stroke-width: 5px; fill: rgb(255, 131, 0); stroke: rgb(0, 0, 0);" d="M 24.831 364.963 C 72.273 364.963 118.489 378.455 158.227 403.525 C 163.564 406.893 168.772 410.461 173.838 414.222 C 177.816 417.174 181.715 420.252 185.529 423.452 L 153.553 461.559 C 123.687 436.336 85.658 419.41 41.763 415.681 C 36.101 415.2 30.452 414.962 24.831 414.961 Z" transform="matrix(-0.939693, -0.34202, 0.34202, -0.939693, 68.660812, 835.017761)"/>
  <path style="paint-order: stroke; fill-rule: evenodd; stroke-width: 5px; fill: rgb(255, 131, 0); stroke: rgb(0, 0, 0);" d="M -45.914 233.922 C 1.527 233.922 47.743 247.414 87.481 272.484 C 92.818 275.852 98.026 279.42 103.092 283.181 C 107.07 286.133 110.969 289.211 114.783 292.411 L 82.807 330.518 C 52.941 305.295 14.912 288.369 -28.982 284.64 C -34.644 284.159 -40.293 283.921 -45.914 283.92 Z" transform="matrix(-0.5, -0.866025, 0.866025, -0.5, -186.770523, 450.595886)"/>
  <path style="paint-order: stroke; fill-rule: evenodd; stroke-width: 5px; fill: rgb(255, 131, 0); stroke: rgb(0, 0, 0);" d="M -15.9 88.392 C 31.541 88.392 77.757 101.884 117.495 126.954 C 122.832 130.322 128.04 133.89 133.106 137.651 C 137.084 140.603 140.983 143.681 144.796 146.881 L 112.821 184.988 C 82.955 159.765 44.926 142.839 1.032 139.11 C -4.63 138.629 -10.279 138.391 -15.9 138.39 Z" transform="matrix(0.173648, -0.984808, 0.984808, 0.173648, -75.369247, 173.867661)"/>
  <path style="paint-order: stroke; fill-rule: evenodd; fill: rgb(255, 255, 255); stroke-width: 5px; stroke: rgb(0, 0, 0);" d="M 100.87 -4.136 C 148.311 -4.136 194.527 9.356 234.265 34.426 C 239.602 37.794 244.81 41.362 249.876 45.123 C 253.854 48.075 257.753 51.153 261.567 54.353 L 229.591 92.46 C 199.725 67.237 161.696 50.311 117.802 46.582 C 112.14 46.101 106.491 45.863 100.87 45.862 Z" transform="matrix(0.766045, -0.642787, 0.642787, 0.766045, 19.997618, 124.261528)"/>
  <path d="M 251.477 84.17 C 262.41 84.17 271.21 86.963 277.877 92.55 C 284.55 98.13 287.887 105.68 287.887 115.2 C 287.887 121.78 285.814 127.6 281.667 132.66 C 277.527 137.713 270.814 142.383 261.527 146.67 C 272.814 151.31 280.747 156.393 285.327 161.92 C 289.914 167.447 292.207 174.147 292.207 182.02 C 292.207 192.653 288.49 201.143 281.057 207.49 C 273.624 213.837 263.647 217.01 251.127 217.01 C 238.14 217.01 228.18 214.043 221.247 208.11 C 214.314 202.177 210.847 193.537 210.847 182.19 C 210.847 174.497 213.284 167.74 218.157 161.92 C 223.037 156.1 230.59 151.133 240.817 147.02 C 231.35 142.553 224.68 137.84 220.807 132.88 C 216.927 127.913 214.987 121.963 214.987 115.03 C 214.987 108.857 216.544 103.433 219.657 98.76 C 222.77 94.087 227.134 90.487 232.747 87.96 C 238.36 85.433 244.604 84.17 251.477 84.17 Z M 219.837 183.52 C 219.837 191.627 222.584 197.913 228.077 202.38 C 233.57 206.847 241.254 209.08 251.127 209.08 C 260.767 209.08 268.524 206.713 274.397 201.98 C 280.277 197.253 283.217 190.833 283.217 182.72 C 283.217 175.433 280.91 169.513 276.297 164.96 C 271.684 160.407 262.794 155.633 249.627 150.64 C 238.814 154.813 231.144 159.427 226.617 164.48 C 222.097 169.533 219.837 175.88 219.837 183.52 Z M 251.307 92.11 C 243.02 92.11 236.364 94.15 231.337 98.23 C 226.31 102.317 223.797 107.917 223.797 115.03 C 223.797 119.143 224.724 122.77 226.577 125.91 C 228.43 129.057 231.104 131.907 234.597 134.46 C 238.097 137.02 243.96 140.003 252.187 143.41 C 261.767 139.71 268.64 135.627 272.807 131.16 C 276.98 126.693 279.067 121.317 279.067 115.03 C 279.067 107.977 276.584 102.393 271.617 98.28 C 266.657 94.167 259.887 92.11 251.307 92.11 Z" transform="matrix(1.384834, 0, 0, 1.384834, -168.217438, 48.264305)" style="fill: rgb(255, 255, 255); white-space: pre;"/>
  <path d="M 381 244.118 L 381 328.824 C 381 340.52 372.046 350 361 350 L 281 350 C 269.954 350 261 340.52 261 328.824 L 261 244.118 C 261 232.422 269.954 222.941 281 222.941 L 281 210.763 C 281.811 189.078 298.6 169.68 321.563 170.004 C 335.852 170.206 348.955 178.464 355.934 191.668 C 358.95 197.373 360.57 203.342 360.983 209.238 L 360.983 210.767 L 361 210.767 L 361 222.941 C 372.046 222.941 381 232.422 381 244.118 Z M 321.363 185.886 C 312.432 185.76 304.116 190.687 299.548 198.814 C 297.217 202.96 296.096 207.373 296 211.694 L 296 222.941 L 346 222.941 L 346 210.767 L 346.018 210.767 C 345.242 197.721 335.256 186.081 321.363 185.886 Z" style="fill: rgb(255, 255, 255);" transform="matrix(1, 0, 0, 1, 5.987394, -2.555289)"/>
</svg>