<?xml version="1.0" encoding="utf-8"?>
<svg viewBox="-44.889 -35.508 581.323 585.509" width="581.323" height="585.509" xmlns="http://www.w3.org/2000/svg">
  <path style="paint-order: stroke; fill-rule: evenodd; stroke-width: 5px; fill: rgb(0, 255, 100); stroke: rgb(255, 255, 255);" d="M 250 0 C 297.441 0 343.657 13.492 383.395 38.562 C 388.732 41.93 393.94 45.498 399.006 49.259 C 402.984 52.211 406.883 55.289 410.697 58.489 L 378.721 96.596 C 348.855 71.373 310.826 54.447 266.932 50.718 C 261.27 50.237 255.621 49.999 250 49.998 Z" transform="matrix(1, 0, 0, 1, 2.678343, 8.975071)"/>
  <path style="paint-order: stroke; fill-rule: evenodd; stroke-width: 5px; fill: rgb(0, 255, 100); stroke: rgb(255, 255, 255);" d="M 360.812 98.911 C 408.253 98.911 454.469 112.403 494.207 137.473 C 499.544 140.841 504.752 144.409 509.818 148.17 C 513.796 151.122 517.695 154.2 521.509 157.4 L 489.533 195.507 C 459.667 170.284 421.638 153.358 377.744 149.629 C 372.082 149.148 366.433 148.91 360.812 148.909 Z" transform="matrix(0.766044, 0.642788, -0.642788, 0.766044, 200.514664, -240.157227)"/>
  <path style="paint-order: stroke; fill-rule: evenodd; stroke-width: 5px; fill: rgb(0, 255, 100); stroke: rgb(255, 255, 255);" d="M 382.277 246.17 C 429.718 246.17 475.934 259.662 515.672 284.732 C 521.009 288.1 526.217 291.668 531.283 295.429 C 535.261 298.381 539.16 301.459 542.974 304.659 L 510.998 342.766 C 481.132 317.543 443.103 300.617 399.209 296.888 C 393.547 296.407 387.898 296.169 382.277 296.168 Z" transform="matrix(0.173648, 0.984808, -0.984808, 0.173648, 674.964233, -203.287918)"/>
  <path style="paint-order: stroke; fill-rule: evenodd; fill: rgb(255, 255, 255); stroke-width: 5px; stroke: rgb(255, 255, 255);" d="M 304.163 373.037 C 351.604 373.037 397.82 386.529 437.558 411.599 C 442.895 414.967 448.103 418.535 453.169 422.296 C 457.147 425.248 461.046 428.326 464.86 431.526 L 432.884 469.633 C 403.018 444.41 364.989 427.484 321.095 423.755 C 315.433 423.274 309.784 423.036 304.163 423.035 Z" transform="matrix(-0.499999, 0.866026, -0.866026, -0.499999, 944.332214, 307.980164)"/>
  <path style="paint-order: stroke; fill-rule: evenodd; fill: rgb(255, 255, 255); stroke-width: 5px; stroke: rgb(255, 255, 255);" d="M 162.877 419.862 C 210.318 419.862 256.534 433.354 296.272 458.424 C 301.609 461.792 306.817 465.36 311.883 469.121 C 315.861 472.073 319.76 475.151 323.574 478.351 L 291.598 516.458 C 261.732 491.235 223.703 474.309 179.809 470.58 C 174.147 470.099 168.498 469.861 162.877 469.86 Z" transform="matrix(-0.939693, 0.34202, -0.34202, -0.939693, 634.581116, 833.873718)"/>
  <path style="paint-order: stroke; fill-rule: evenodd; fill: rgb(255, 255, 255); stroke-width: 5px; stroke: rgb(255, 255, 255);" d="M 24.831 364.963 C 72.273 364.963 118.489 378.455 158.227 403.525 C 163.564 406.893 168.772 410.461 173.838 414.222 C 177.816 417.174 181.715 420.252 185.529 423.452 L 153.553 461.559 C 123.687 436.336 85.658 419.41 41.763 415.681 C 36.101 415.2 30.452 414.962 24.831 414.961 Z" transform="matrix(-0.939693, -0.34202, 0.34202, -0.939693, 65.351761, 846.548096)"/>
  <path style="paint-order: stroke; fill-rule: evenodd; fill: rgb(255, 255, 255); stroke-width: 5px; stroke: rgb(255, 255, 255);" d="M -45.914 233.922 C 1.527 233.922 47.743 247.414 87.481 272.484 C 92.818 275.852 98.026 279.42 103.092 283.181 C 107.07 286.133 110.969 289.211 114.783 292.411 L 82.807 330.518 C 52.941 305.295 14.912 288.369 -28.982 284.64 C -34.644 284.159 -40.293 283.921 -45.914 283.92 Z" transform="matrix(-0.5, -0.866025, 0.866025, -0.5, -190.079575, 462.126251)"/>
  <path style="paint-order: stroke; fill-rule: evenodd; fill: rgb(255, 255, 255); stroke-width: 5px; stroke: rgb(255, 255, 255);" d="M -15.9 88.392 C 31.541 88.392 77.757 101.884 117.495 126.954 C 122.832 130.322 128.04 133.89 133.106 137.651 C 137.084 140.603 140.983 143.681 144.796 146.881 L 112.821 184.988 C 82.955 159.765 44.926 142.839 1.032 139.11 C -4.63 138.629 -10.279 138.391 -15.9 138.39 Z" transform="matrix(0.173648, -0.984808, 0.984808, 0.173648, -78.678299, 185.398026)"/>
  <path style="paint-order: stroke; fill-rule: evenodd; fill: rgb(255, 255, 255); stroke-width: 5px; stroke: rgb(255, 255, 255);" d="M 100.87 -4.136 C 148.311 -4.136 194.527 9.356 234.265 34.426 C 239.602 37.794 244.81 41.362 249.876 45.123 C 253.854 48.075 257.753 51.153 261.567 54.353 L 229.591 92.46 C 199.725 67.237 161.696 50.311 117.802 46.582 C 112.14 46.101 106.491 45.863 100.87 45.862 Z" transform="matrix(0.766045, -0.642787, 0.642787, 0.766045, 16.688566, 135.791885)"/>
  <path d="M 286.477 116.7 C 286.477 124.693 283.964 131.423 278.937 136.89 C 273.91 142.35 267.167 145.847 258.707 147.38 L 258.707 147.9 C 269.047 149.193 276.92 152.487 282.327 157.78 C 287.734 163.067 290.437 170.177 290.437 179.11 C 290.437 191.157 286.34 200.487 278.147 207.1 C 269.947 213.707 258.15 217.01 242.757 217.01 C 229.65 217.01 218.22 214.573 208.467 209.7 L 208.467 200.97 C 213.4 203.557 218.937 205.583 225.077 207.05 C 231.217 208.523 236.99 209.26 242.397 209.26 C 255.384 209.26 265.14 206.63 271.667 201.37 C 278.187 196.11 281.447 188.69 281.447 179.11 C 281.447 170.59 278.114 164.037 271.447 159.45 C 264.774 154.87 254.974 152.58 242.047 152.58 L 228.117 152.58 L 228.117 144.11 L 242.227 144.11 C 252.92 144.11 261.397 141.57 267.657 136.49 C 273.917 131.41 277.047 124.52 277.047 115.82 C 277.047 108.653 274.504 102.91 269.417 98.59 C 264.337 94.27 257.68 92.11 249.447 92.11 C 243.047 92.11 237.2 93.007 231.907 94.8 C 226.62 96.587 220.687 99.657 214.107 104.01 L 209.787 98.1 C 214.78 93.927 220.804 90.62 227.857 88.18 C 234.91 85.747 242.05 84.53 249.277 84.53 C 261.144 84.53 270.31 87.333 276.777 92.94 C 283.244 98.553 286.477 106.473 286.477 116.7 Z" transform="matrix(1.3848340511322021, 0, 0, 1.3848340511322021, -171.5264892578125, 59.7946662902832)" style="fill: rgb(255, 255, 255); white-space: pre;"/>
  <path d="M 381 244.118 L 381 328.824 C 381 340.52 372.046 350 361 350 L 281 350 C 269.954 350 261 340.52 261 328.824 L 261 244.118 C 261 232.422 269.954 222.941 281 222.941 L 281 210.763 C 281.811 189.078 298.6 169.68 321.563 170.004 C 335.852 170.206 348.955 178.464 355.934 191.668 C 358.95 197.373 360.57 203.342 360.983 209.238 L 360.983 210.767 L 361 210.767 L 361 222.941 C 372.046 222.941 381 232.422 381 244.118 Z M 321.363 185.886 C 312.432 185.76 304.116 190.687 299.548 198.814 C 297.217 202.96 296.096 207.373 296 211.694 L 296 222.941 L 346 222.941 L 346 210.767 L 346.018 210.767 C 345.242 197.721 335.256 186.081 321.363 185.886 Z" style="fill: rgb(255, 255, 255);" transform="matrix(1, 0, 0, 1, 2.678343, 8.975071)"/>
</svg>